<svg xmlns="http://www.w3.org/2000/svg" xmlns:xlink="http://www.w3.org/1999/xlink" viewBox="0 0 44 34.04"><defs><style>.cls-1{fill:#fa0;}.cls-2{fill:#ad4000;opacity:0.3;}.cls-3{fill:url(#未命名的渐变_157);}.cls-4{fill:#b21b92;}.cls-5{opacity:0.05;}.cls-6{fill:url(#未命名的渐变_157-2);}.cls-7{fill:url(#未命名的渐变_157-3);}.cls-8{fill:#f0b030;}.cls-9{fill:#fb3;}.cls-10{fill:url(#未命名的渐变_157-4);}.cls-11{fill:url(#未命名的渐变_157-5);}.cls-12{fill:#fff;}.cls-12,.cls-13,.cls-15{opacity:0.15;}.cls-13{fill:#cc4b00;}.cls-14{fill:#f44ac8;}.cls-15{fill:#8a3300;}.cls-16{fill:#f7c01e;}.cls-17{fill:#5b0000;}</style><linearGradient id="未命名的渐变_157" x1="22.99" y1="3.98" x2="28.26" y2="3.98" gradientUnits="userSpaceOnUse"><stop offset="0" stop-color="#ff97da"/><stop offset="1" stop-color="#ff61c7"/></linearGradient><linearGradient id="未命名的渐变_157-2" x1="20.55" y1="3.45" x2="24.73" y2="3.45" xlink:href="#未命名的渐变_157"/><linearGradient id="未命名的渐变_157-3" x1="16.94" y1="4.41" x2="21.21" y2="4.41" xlink:href="#未命名的渐变_157"/><linearGradient id="未命名的渐变_157-4" x1="22.99" y1="7.18" x2="26.45" y2="7.18" xlink:href="#未命名的渐变_157"/><linearGradient id="未命名的渐变_157-5" x1="14.64" y1="7.19" x2="16.8" y2="7.19" xlink:href="#未命名的渐变_157"/></defs><g id="图层_2" data-name="图层 2"><g id="图层_1-2" data-name="图层 1"><polygon class="cls-1" points="18.45 13.68 18.45 8.01 13.63 7.1 13.63 13.68 18.45 13.68"/><polygon class="cls-2" points="18.45 13.68 18.45 8.01 13.63 7.1 13.63 13.68 18.45 13.68"/><polygon class="cls-1" points="30.52 13.68 30.52 7.1 18.89 7.98 18.45 8.01 18.45 13.68 30.52 13.68"/><path class="cls-3" d="M24.54,6.13s3.31-.58,3.69-1.85S25.9,1.83,25.9,1.83A4.14,4.14,0,0,1,23,5.75Z"/><path class="cls-4" d="M25.9,1.83S24.74,1.31,23,5.75C23,5.75,26,4.8,25.9,1.83Z"/><path class="cls-5" d="M25.9,1.83h0C26,4.8,23,5.75,23,5.75c.06-.16.12-.3.17-.44A4.4,4.4,0,0,0,25.9,1.83Z"/><path class="cls-6" d="M23,6.13s2.32-3.26,1.58-5-4-1-4-1a6.79,6.79,0,0,1,.81,6.73Z"/><path class="cls-4" d="M20.56.17s-1.42.31.81,6.72A6.51,6.51,0,0,0,20.56.17Z"/><path class="cls-5" d="M20.55.17h0a6.51,6.51,0,0,1,.81,6.72c-.08-.22-.15-.43-.22-.64A6.9,6.9,0,0,0,20.55.17Z"/><path class="cls-7" d="M21.21,5.56s-.45-3.34-1.71-3.77S16.94,4,16.94,4a4.2,4.2,0,0,1,3.82,3.1Z"/><path class="cls-4" d="M16.94,4s-.57,1.14,3.82,3.09C20.76,7.08,19.94,4,16.94,4Z"/><path class="cls-5" d="M16.94,4h0c3,0,3.82,3.09,3.82,3.09l-.43-.2A4.45,4.45,0,0,0,16.94,4Z"/><path class="cls-8" d="M18.45,9V5.11l-5.3,1a.2.2,0,0,0-.16.19V8.66a.21.21,0,0,0,.19.2Z"/><path class="cls-9" d="M30.81,9H18.45V5.11l12.37.74a.2.2,0,0,1,.19.2V8.79A.2.2,0,0,1,30.81,9Z"/><polygon class="cls-10" points="26.45 5.59 26.45 8.99 22.99 8.99 22.99 5.38 26.45 5.59"/><polygon class="cls-11" points="14.64 5.86 16.8 5.43 16.8 8.95 14.64 8.89 14.64 5.86"/><polygon class="cls-12" points="31.01 5.86 18.45 5.11 12.99 6.18 12.99 6.3 18.45 5.63 31.01 6.03 31.01 5.86"/><path class="cls-13" d="M20.9,13.68A12.49,12.49,0,0,1,19.07,9h-.62v4.69Z"/><polygon class="cls-14" points="16.8 13.68 16.8 8.95 14.64 8.89 14.64 13.68 16.8 13.68"/><rect class="cls-14" x="22.99" y="8.99" width="3.46" height="4.69"/><polygon class="cls-15" points="30.52 8.99 18.45 8.99 13.63 8.87 13.63 9.15 18.45 9.6 30.52 9.29 30.52 8.99"/><path class="cls-16" d="M40.74,12.72H3.26A3.25,3.25,0,0,0,0,16V25.6a3.26,3.26,0,0,0,3.26,3.26h0L2.17,32.72A1,1,0,0,0,3.68,33.9l8.37-5H40.74A3.26,3.26,0,0,0,44,25.6V16A3.25,3.25,0,0,0,40.74,12.72Z"/><path class="cls-17" d="M10.51,21.1a2.09,2.09,0,0,1,.4,1.33,2.25,2.25,0,0,1-.81,2A3.32,3.32,0,0,1,8.15,25h-3a.72.72,0,0,1-.73-.73V17.32a.7.7,0,0,1,.21-.52.72.72,0,0,1,.52-.21h3q2.28,0,2.28,2.13a1.71,1.71,0,0,1-1,1.61A2.45,2.45,0,0,1,10.51,21.1ZM8.66,18.25A.94.94,0,0,0,8,18H6v1.88H8a.92.92,0,0,0,.63-.24A.83.83,0,0,0,8.91,19,1,1,0,0,0,8.66,18.25ZM9,23.31a1.12,1.12,0,0,0,.32-.88c0-.47-.12-.78-.37-.92a1.73,1.73,0,0,0-.91-.22H6v2.32H8.15A1.22,1.22,0,0,0,9,23.31Z"/><path class="cls-17" d="M18.59,23a4,4,0,0,1-1.45,1.56,3.88,3.88,0,0,1-2.1.58A3.82,3.82,0,0,1,13,24.53,4,4,0,0,1,11.49,23a4.83,4.83,0,0,1,0-4.36A4.09,4.09,0,0,1,13,17,3.9,3.9,0,0,1,15,16.47a4,4,0,0,1,2.1.57,4.14,4.14,0,0,1,1.45,1.57,4.75,4.75,0,0,1,0,4.36Zm-1.35-3.64a2.68,2.68,0,0,0-.9-1,2.36,2.36,0,0,0-1.3-.38,2.23,2.23,0,0,0-1.3.38,2.49,2.49,0,0,0-.89,1,3.51,3.51,0,0,0,0,2.93,2.52,2.52,0,0,0,.89,1,2.39,2.39,0,0,0,2.6,0,2.65,2.65,0,0,0,.9-1,3.49,3.49,0,0,0,0-2.92Z"/><path class="cls-17" d="M26.44,16.78a.68.68,0,0,1,.18.48v7a.72.72,0,0,1-.21.52.7.7,0,0,1-.52.21,1,1,0,0,1-.33-.06.36.36,0,0,1-.23-.15l-4.41-5.59v5.13a.68.68,0,0,1-.18.48.7.7,0,0,1-.49.19.65.65,0,0,1-.47-.19.68.68,0,0,1-.18-.48v-7a.72.72,0,0,1,.73-.73.92.92,0,0,1,.36.07.65.65,0,0,1,.26.19l4.36,5.57V17.26a.65.65,0,0,1,.19-.48.68.68,0,0,1,.94,0Z"/><path class="cls-17" d="M34,16.78a.73.73,0,0,1,.19.53v4.34a3.65,3.65,0,0,1-.42,1.77,3,3,0,0,1-1.18,1.2,3.48,3.48,0,0,1-1.72.43,3.56,3.56,0,0,1-1.74-.43,3,3,0,0,1-1.18-1.2,3.65,3.65,0,0,1-.42-1.77V17.31a.67.67,0,0,1,.22-.52.74.74,0,0,1,.55-.21.69.69,0,0,1,.5.21.67.67,0,0,1,.22.52v4.34a2,2,0,0,0,.25,1,1.8,1.8,0,0,0,.68.69,1.83,1.83,0,0,0,.92.24,2,2,0,0,0,1-.24,1.84,1.84,0,0,0,.72-.69,2,2,0,0,0,.27-1V17.31a.77.77,0,0,1,.18-.53.61.61,0,0,1,.49-.2A.66.66,0,0,1,34,16.78Z"/><path class="cls-17" d="M36.12,24.89a3.69,3.69,0,0,1-1.26-.73.85.85,0,0,1-.32-.64.69.69,0,0,1,.2-.48.67.67,0,0,1,.5-.21.65.65,0,0,1,.4.14,3.48,3.48,0,0,0,.94.58,2.91,2.91,0,0,0,1.08.18,2.18,2.18,0,0,0,1.16-.3.87.87,0,0,0,.48-.75.94.94,0,0,0-.48-.84,3.85,3.85,0,0,0-1.52-.46c-1.75-.26-2.63-1.08-2.63-2.45a2.2,2.2,0,0,1,.4-1.32,2.49,2.49,0,0,1,1.08-.85,3.89,3.89,0,0,1,1.52-.29,4.11,4.11,0,0,1,1.42.23,3.26,3.26,0,0,1,1.11.6.77.77,0,0,1,.35.63.7.7,0,0,1-.2.49.66.66,0,0,1-.48.21.57.57,0,0,1-.33-.11,2.9,2.9,0,0,0-.87-.46,2.85,2.85,0,0,0-1-.21,2.07,2.07,0,0,0-1.17.28.9.9,0,0,0,0,1.52,4.19,4.19,0,0,0,1.34.43,6.8,6.8,0,0,1,1.65.46,2.17,2.17,0,0,1,.93.77,2.32,2.32,0,0,1,.31,1.29,2.2,2.2,0,0,1-.42,1.33,2.7,2.7,0,0,1-1.14.87,3.69,3.69,0,0,1-1.52.31A4.85,4.85,0,0,1,36.12,24.89Z"/></g></g></svg>