<?xml version="1.0" encoding="utf-8"?>
<!-- Generator: Adobe Illustrator 26.0.1, SVG Export Plug-In . SVG Version: 6.00 Build 0)  -->
<svg version="1.1" id="图层_1" xmlns="http://www.w3.org/2000/svg" xmlns:xlink="http://www.w3.org/1999/xlink" x="0px" y="0px"
	 viewBox="0 0 26.1 19.4" style="enable-background:new 0 0 26.1 19.4;" xml:space="preserve">
<style type="text/css">
	.st0{fill:#F49C30;}
	.st1{clip-path:url(#SVGID_00000119087153968365210990000011831724907443596975_);}
	.st2{fill:#F6AB27;}
	.st3{fill:#FBC726;}
</style>
<g id="图层_2_00000037671448412804578830000012172172757574856841_">
	<g id="图层_1-2">
		<path class="st0" d="M3.4,0.1h19.3c1.8,0,3.3,1.5,3.3,3.3v12.5c0,1.8-1.5,3.3-3.3,3.3H3.4c-1.8,0-3.3-1.5-3.3-3.3V3.4
			C0.1,1.6,1.6,0.1,3.4,0.1z"/>
		<g>
			<defs>
				<path id="SVGID_1_" d="M3.4,0.1h19.3c1.8,0,3.3,1.5,3.3,3.3v12.5c0,1.8-1.5,3.3-3.3,3.3H3.4c-1.8,0-3.3-1.5-3.3-3.3V3.4
					C0.1,1.6,1.6,0.1,3.4,0.1z"/>
			</defs>
			<clipPath id="SVGID_00000069393593753728462530000013693900934551318950_">
				<use xlink:href="#SVGID_1_"  style="overflow:visible;"/>
			</clipPath>
			<g style="clip-path:url(#SVGID_00000069393593753728462530000013693900934551318950_);">
				<polygon class="st2" points="-4.2,6.9 -4.2,-8.1 3.5,-0.6 11.3,6.9 3.5,14.4 -4.2,21.9 				"/>
				<polygon class="st2" points="31,6.9 31,-8.1 23.3,-0.6 15.5,6.9 23.3,14.4 31,21.9 				"/>
				<polygon class="st3" points="13.3,11.7 -3,0.5 12.9,-15.4 29.1,0.9 				"/>
			</g>
		</g>
	</g>
</g>
</svg>
