<svg xmlns="http://www.w3.org/2000/svg" viewBox="0 0 29.31 26.17"><defs><style>.cls-1{fill:#ccbcb1;}.cls-1,.cls-10,.cls-11,.cls-12,.cls-2,.cls-3,.cls-4,.cls-5,.cls-6,.cls-7,.cls-8,.cls-9{fill-rule:evenodd;}.cls-2{fill:#393939;}.cls-3{fill:#ef9839;}.cls-4{fill:#ef993a;}.cls-5{fill:#d07a32;}.cls-6{fill:#e1893d;}.cls-7{fill:#e28c38;}.cls-8{fill:#e18b3c;}.cls-9{fill:#df7f24;}.cls-10{fill:#ddccc2;}.cls-11{fill:#df8c38;}.cls-12{fill:#8b5930;}</style></defs><g id="图层_2" data-name="图层 2"><g id="图层_1-2" data-name="图层 1"><polygon class="cls-1" points="8.38 24.06 12.22 25.08 12.22 23.74 12.54 23.43 14.73 23.43 14.73 25 14.73 26.09 12.38 26.09 9.48 24.84 8.38 24.06"/><polygon class="cls-1" points="20.92 24.06 17.16 25.08 17.16 23.74 16.85 23.43 14.65 23.43 14.65 25 14.65 26.09 17 26.09 19.9 24.84 20.92 24.06"/><polygon class="cls-2" points="12.54 21.16 12.22 23.74 12.62 23.43 16.69 23.43 17.16 23.74 16.85 21.16 16.22 20.77 13.09 20.84 12.54 21.16"/><polygon class="cls-3" points="10.42 3.68 12.3 8.07 13.16 20.84 16.22 20.84 17.16 8.07 18.89 3.68 10.42 3.68"/><polygon class="cls-4" points="2.19 13.32 0 19.67 5.49 19.36 9.01 19.36 9.01 16.61 8.86 10.97 8.07 11.6 2.19 13.32"/><polygon class="cls-5" points="6.35 14.03 12.77 14.18 12.07 17.48 9.01 16.69 6.35 14.03"/><polygon class="cls-6" points="6.35 14.11 9.01 16.61 9.01 19.12 6.35 14.11"/><polygon class="cls-4" points="9.01 16.69 12.15 17.48 13.16 20.84 12.46 21.24 9.01 19.2 9.01 16.69"/><polygon class="cls-7" points="9.01 19.2 8.38 24.06 12.54 21.16 9.01 19.2"/><polygon class="cls-8" points="12.77 14.18 13.16 20.84 11.99 17.44 12.77 14.18"/><polygon class="cls-5" points="5.41 19.28 9.01 19.2 8.38 24.06 5.41 19.28"/><polygon class="cls-7" points="1.72 26.17 8.38 24.06 5.41 19.28 0 19.67 1.72 26.17"/><polygon class="cls-9" points="12.3 8.07 8.93 10.89 6.35 14.03 12.77 14.26 12.3 8.07"/><polygon class="cls-10" points="8.38 24.06 12.54 21.16 12.22 23.67 12.22 25.08 9.4 24.53 8.38 24.06"/><polygon class="cls-10" points="20.92 24.06 16.85 21.16 17.16 23.67 17.16 25.08 19.98 24.53 20.92 24.06"/><polygon class="cls-2" points="11.05 15.59 11.91 17.4 8.86 16.61 11.05 15.59"/><polygon class="cls-11" points="1.65 0 12.3 8.07 10.5 3.68 1.65 0"/><path class="cls-12" d="M1.65,0,.24,4.31,1,9l-.55.32.78.7-.62.55.86.78-.55.47L2.19,13.4l5.88-1.8A50.53,50.53,0,0,0,12.3,8.07Q12.23,8,1.65,0Z"/><polygon class="cls-4" points="27.11 13.32 29.31 19.67 23.82 19.36 20.3 19.36 20.3 16.61 20.45 10.97 21.24 11.6 27.11 13.32"/><polygon class="cls-5" points="22.96 14.03 16.53 14.18 17.24 17.48 20.3 16.69 22.96 14.03"/><polygon class="cls-6" points="22.96 14.11 20.3 16.61 20.3 19.12 22.96 14.11"/><polygon class="cls-4" points="20.3 16.69 17.16 17.48 16.14 20.84 16.85 21.24 20.3 19.2 20.3 16.69"/><polygon class="cls-7" points="20.3 19.2 20.92 24.06 16.85 21.24 20.3 19.2"/><polygon class="cls-8" points="16.53 14.18 16.14 20.84 17.32 17.44 16.53 14.18"/><polygon class="cls-5" points="23.9 19.28 20.3 19.2 20.92 24.06 23.9 19.28"/><polygon class="cls-7" points="27.58 26.17 20.92 24.06 23.9 19.28 29.31 19.67 27.58 26.17"/><polygon class="cls-9" points="17 8.07 20.37 10.89 22.96 14.03 16.53 14.26 17 8.07"/><polygon class="cls-2" points="18.26 15.59 17.4 17.4 20.45 16.61 18.26 15.59"/><polygon class="cls-11" points="27.66 0 17 8.07 18.81 3.68 27.66 0"/><path class="cls-12" d="M27.66,0l1.41,4.31L28.29,9l.55.32-.79.7.63.55-.86.78.55.47L27.11,13.4l-5.87-1.8A52.21,52.21,0,0,1,17,8.07Z"/></g></g></svg>