<?xml version="1.0" encoding="utf-8"?>
<!-- Generator: Adobe Illustrator 27.4.1, SVG Export Plug-In . SVG Version: 6.00 Build 0)  -->
<svg version="1.1" id="_x31_" xmlns="http://www.w3.org/2000/svg" xmlns:xlink="http://www.w3.org/1999/xlink" x="0px" y="0px"
	 viewBox="0 0 160 24" style="enable-background:new 0 0 160 24;" xml:space="preserve">
<style type="text/css">
	.st0{fill:#EBF7FD;}
	.st1{fill-rule:evenodd;clip-rule:evenodd;fill:url(#SVGID_1_);}
</style>
<path class="st0" d="M11.6,7.5c0.6,0.6,0.6,1.5,0,2.1c-0.6,0.6-1.6,0.6-2.2,0C8.7,9,8.7,8.1,9.4,7.5C10,6.9,11,6.9,11.6,7.5z"/>
<path class="st0" d="M7.9,11c0.6,0.6,0.6,1.5,0,2.1c-0.6,0.6-1.6,0.6-2.2,0C5,12.6,5,11.6,5.6,11C6.2,10.4,7.2,10.4,7.9,11z"/>
<path class="st0" d="M11.6,14.6c0.6,0.6,0.6,1.5,0,2.1c-0.6,0.6-1.6,0.6-2.2,0c-0.6-0.6-0.6-1.5,0-2.1C10,14,11,14,11.6,14.6z"/>
<path class="st0" d="M15.3,13.2c0.6-0.6,0.6-1.5,0-2.1c-0.6-0.6-1.6-0.6-2.2,0c-0.6,0.6-0.6,1.5,0,2.1
	C13.7,13.7,14.7,13.7,15.3,13.2z"/>
<linearGradient id="SVGID_1_" gradientUnits="userSpaceOnUse" x1="21.9232" y1="10.6061" x2="-1.1907" y2="13.1745" gradientTransform="matrix(1 0 0 -1 0 23.89)">
	<stop  offset="0" style="stop-color:#FCE344"/>
	<stop  offset="0.4721" style="stop-color:#79FA4B"/>
	<stop  offset="0.9362" style="stop-color:#30D7F1"/>
</linearGradient>
<path class="st1" d="M16.6,0C8.2,0.3-7.1,7.8,3.7,16.3c1.9,1.5,0.6,3.1-0.4,4.4C3.2,20.9,3,21,2.9,21.2c-0.9,1.1-0.5,2.9,1.2,2.8
	c8.4-0.3,23.7-7.8,12.9-16.3c-1.9-1.5-0.6-3.1,0.5-4.5c0.1-0.1,0.2-0.3,0.3-0.4C18.8,1.5,18.2-0.1,16.6,0z M3.3,13.5
	c-0.8-0.8-0.8-2.1,0-2.8l5.7-5.4c0.8-0.8,2.2-0.8,3,0l5.7,5.4c0.8,0.8,0.8,2.1,0,2.8l-5.7,5.4c-0.8,0.8-2.2,0.8-3,0L3.3,13.5z"/>
<path class="st0" d="M36.8,19.8c-1.3,0-2.6-0.2-3.8-0.6c-1.3-0.4-2.4-1.1-3.3-1.9l1.9-2.2c0.9,0.8,1.8,1.3,2.7,1.6
	c0.9,0.3,1.8,0.5,2.8,0.5c0.7,0,1.3-0.1,1.8-0.2c0.5-0.2,0.9-0.4,1.1-0.6c0.3-0.3,0.4-0.6,0.4-1c0-0.5-0.2-0.9-0.6-1.1
	c-0.4-0.3-1.1-0.5-2.1-0.6l-3.2-0.5c-1.4-0.2-2.4-0.6-3.1-1.3c-0.7-0.7-1.1-1.5-1.1-2.6c0-0.9,0.3-1.7,0.8-2.4
	c0.5-0.7,1.3-1.2,2.2-1.5c1-0.4,2.1-0.5,3.4-0.5c1.2,0,2.4,0.2,3.5,0.5c1.2,0.4,2.2,0.9,3.1,1.5l-1.8,2.3c-1.7-1.2-3.4-1.8-5.1-1.8
	c-0.6,0-1.1,0.1-1.6,0.2c-0.4,0.1-0.8,0.3-1,0.6c-0.2,0.2-0.3,0.5-0.3,0.9c0,0.4,0.2,0.8,0.5,1c0.4,0.2,0.9,0.4,1.8,0.5l3.1,0.5
	c1.6,0.2,2.8,0.7,3.6,1.4c0.8,0.7,1.2,1.6,1.2,2.7c0,0.9-0.3,1.8-0.8,2.5c-0.6,0.7-1.4,1.2-2.4,1.6C39.4,19.6,38.2,19.8,36.8,19.8z"
	/>
<path class="st0" d="M51.5,19.8c-1.2,0-2.3-0.3-3.3-0.8c-1-0.5-1.7-1.2-2.3-2c-0.6-0.9-0.9-1.8-0.9-2.9c0-1.1,0.3-2,0.8-2.9
	c0.6-0.9,1.3-1.5,2.3-2c1-0.5,2.1-0.8,3.3-0.8c1.2,0,2.3,0.3,3.3,0.8c1,0.5,1.8,1.2,2.3,2c0.6,0.9,0.9,1.8,0.9,2.9
	c0,1.1-0.3,2-0.9,2.9c-0.6,0.9-1.3,1.5-2.3,2C53.9,19.6,52.8,19.8,51.5,19.8z M51.5,17.3c0.6,0,1.2-0.1,1.7-0.4
	c0.5-0.3,0.9-0.7,1.2-1.1c0.3-0.5,0.5-1,0.5-1.6c0-0.6-0.2-1.1-0.5-1.6c-0.3-0.5-0.7-0.9-1.2-1.1c-0.5-0.3-1.1-0.4-1.7-0.4
	c-0.6,0-1.2,0.1-1.7,0.4c-0.5,0.3-0.9,0.7-1.2,1.1c-0.3,0.5-0.4,1-0.4,1.6c0,0.6,0.1,1.1,0.4,1.6c0.3,0.5,0.7,0.9,1.2,1.1
	C50.4,17.2,50.9,17.3,51.5,17.3z"/>
<path class="st0" d="M59.9,19.6V5l3.2-0.5v15.1H59.9z"/>
<path class="st0" d="M71.3,19.8c-1.2,0-2.3-0.2-3.2-0.7c-1-0.5-1.7-1.2-2.3-2c-0.6-0.9-0.8-1.8-0.8-2.9c0-1.1,0.3-2,0.8-2.9
	c0.6-0.9,1.3-1.5,2.3-2s2-0.8,3.2-0.8c1,0,1.9,0.2,2.7,0.5c0.9,0.3,1.6,0.8,2.3,1.4l-1.9,1.9c-0.4-0.4-0.9-0.8-1.4-1
	c-0.5-0.2-1-0.3-1.6-0.3c-0.6,0-1.2,0.1-1.7,0.4c-0.5,0.3-0.9,0.7-1.2,1.1c-0.3,0.5-0.4,1-0.4,1.6c0,0.6,0.1,1.1,0.4,1.6
	c0.3,0.5,0.7,0.9,1.2,1.1c0.5,0.3,1.1,0.4,1.7,0.4c0.5,0,1-0.1,1.5-0.3c0.5-0.2,0.9-0.5,1.4-0.9l1.9,1.8c-0.6,0.6-1.4,1.1-2.2,1.4
	C73.2,19.7,72.3,19.8,71.3,19.8z"/>
<path class="st0" d="M81.8,19.8c-0.9,0-1.6-0.1-2.3-0.4c-0.7-0.3-1.2-0.7-1.6-1.2c-0.4-0.5-0.6-1.1-0.6-1.7c0-1,0.4-1.9,1.3-2.4
	c0.9-0.6,2.1-0.9,3.6-0.9c1.1,0,2,0.1,3,0.4v-0.8c0-0.6-0.2-1.1-0.6-1.4c-0.4-0.3-1.1-0.5-1.9-0.5c-0.5,0-1.1,0.1-1.6,0.2
	c-0.6,0.1-1.3,0.4-2,0.7l-1.2-2.1c1-0.4,1.9-0.7,2.7-0.9c0.9-0.2,1.8-0.3,2.6-0.3c1.6,0,2.9,0.4,3.8,1.1c0.9,0.7,1.4,1.7,1.4,3v7.1
	h-3.1v-0.8c-0.5,0.3-1,0.6-1.6,0.7C83.1,19.7,82.4,19.8,81.8,19.8z M80.4,16.4c0,0.4,0.2,0.8,0.6,1c0.4,0.2,0.9,0.4,1.6,0.4
	c0.5,0,1-0.1,1.5-0.2c0.4-0.1,0.8-0.3,1.2-0.5v-1.6c-0.4-0.1-0.8-0.2-1.2-0.3c-0.4-0.1-0.9-0.1-1.3-0.1c-0.7,0-1.3,0.1-1.7,0.4
	C80.6,15.7,80.4,16,80.4,16.4z"/>
<path class="st0" d="M95.3,19.8c-1.1,0-2.1-0.1-3.1-0.4c-0.9-0.3-1.8-0.6-2.5-1.1l1.6-1.9c0.7,0.4,1.4,0.7,2,0.9
	c0.6,0.2,1.3,0.3,1.9,0.3c0.7,0,1.3-0.1,1.7-0.3c0.4-0.2,0.6-0.5,0.6-0.9c0-0.3-0.1-0.5-0.4-0.7c-0.2-0.2-0.6-0.3-1.1-0.4l-2.3-0.3
	c-1.2-0.2-2.1-0.5-2.7-1c-0.6-0.5-0.9-1.3-0.9-2.1c0-0.7,0.2-1.3,0.6-1.8c0.4-0.5,1-0.9,1.7-1.2c0.8-0.3,1.7-0.4,2.7-0.4
	c0.9,0,1.7,0.1,2.6,0.3c0.8,0.2,1.6,0.6,2.4,1l-1.5,1.9c-0.7-0.4-1.3-0.6-1.9-0.8c-0.6-0.2-1.2-0.3-1.8-0.3c-0.6,0-1,0.1-1.4,0.3
	c-0.3,0.2-0.5,0.5-0.5,0.8c0,0.3,0.1,0.5,0.4,0.7c0.2,0.2,0.7,0.3,1.3,0.4l2.3,0.3c1.2,0.2,2.1,0.5,2.8,1c0.6,0.5,0.9,1.2,0.9,2.1
	c0,0.7-0.2,1.3-0.7,1.9c-0.5,0.5-1.1,1-1.9,1.3C97.2,19.7,96.3,19.8,95.3,19.8z"/>
<path class="st0" d="M102.1,19.6V8.7h3.2v10.9H102.1z M103.7,7.4c-0.5,0-0.9-0.2-1.3-0.5c-0.4-0.3-0.5-0.7-0.5-1.2
	c0-0.5,0.2-0.8,0.5-1.2c0.4-0.3,0.8-0.5,1.3-0.5c0.5,0,0.9,0.2,1.3,0.5c0.4,0.3,0.5,0.7,0.5,1.2c0,0.4-0.2,0.8-0.5,1.2
	C104.6,7.3,104.2,7.4,103.7,7.4z"/>
<path class="st0" d="M107.8,19.6V8.7h3.2v0.9c0.9-0.7,2-1.1,3.4-1.1c0.9,0,1.8,0.2,2.5,0.6c0.7,0.4,1.3,0.9,1.7,1.5
	c0.4,0.6,0.6,1.4,0.6,2.3v6.8h-3.2v-6.3c0-0.7-0.2-1.3-0.7-1.7c-0.4-0.4-1.1-0.6-1.8-0.6c-0.5,0-1,0.1-1.4,0.3
	c-0.4,0.2-0.8,0.4-1,0.8v7.5H107.8z"/>
<path class="st0" d="M127.4,19.8c-1.2,0-2.3-0.3-3.3-0.8c-1-0.5-1.7-1.2-2.3-2c-0.6-0.9-0.9-1.8-0.9-2.9c0-1.1,0.3-2,0.8-2.9
	c0.6-0.9,1.3-1.5,2.3-2c1-0.5,2.1-0.8,3.3-0.8c1.2,0,2.3,0.3,3.3,0.8c1,0.5,1.8,1.2,2.3,2c0.6,0.9,0.9,1.8,0.9,2.9
	c0,1.1-0.3,2-0.9,2.9c-0.6,0.9-1.3,1.5-2.3,2C129.7,19.6,128.6,19.8,127.4,19.8z M127.4,17.3c0.6,0,1.2-0.1,1.7-0.4
	c0.5-0.3,0.9-0.7,1.2-1.1c0.3-0.5,0.5-1,0.5-1.6c0-0.6-0.2-1.1-0.5-1.6c-0.3-0.5-0.7-0.9-1.2-1.1c-0.5-0.3-1.1-0.4-1.7-0.4
	c-0.6,0-1.2,0.1-1.7,0.4c-0.5,0.3-0.9,0.7-1.2,1.1c-0.3,0.5-0.4,1-0.4,1.6c0,0.6,0.1,1.1,0.4,1.6c0.3,0.5,0.7,0.9,1.2,1.1
	C126.2,17.2,126.8,17.3,127.4,17.3z"/>
<path class="st0" d="M137,19.8c-0.5,0-0.9-0.2-1.3-0.5c-0.4-0.3-0.6-0.7-0.6-1.2c0-0.5,0.2-0.9,0.6-1.2s0.8-0.5,1.3-0.5
	c0.5,0,0.9,0.2,1.3,0.5c0.4,0.3,0.6,0.7,0.6,1.2c0,0.5-0.2,0.9-0.6,1.2C137.9,19.7,137.5,19.8,137,19.8z"/>
<path class="st0" d="M141.1,19.6V8.7h3.2v10.9H141.1z M142.7,7.4c-0.5,0-0.9-0.2-1.3-0.5c-0.4-0.3-0.5-0.7-0.5-1.2
	c0-0.5,0.2-0.8,0.5-1.2c0.4-0.3,0.8-0.5,1.3-0.5c0.5,0,0.9,0.2,1.3,0.5c0.4,0.3,0.5,0.7,0.5,1.2c0,0.4-0.2,0.8-0.5,1.2
	C143.6,7.3,143.2,7.4,142.7,7.4z"/>
<path class="st0" d="M152.7,19.8c-1.2,0-2.3-0.3-3.3-0.8c-1-0.5-1.7-1.2-2.3-2c-0.6-0.9-0.9-1.8-0.9-2.9c0-1.1,0.3-2,0.8-2.9
	c0.6-0.9,1.3-1.5,2.3-2c1-0.5,2.1-0.8,3.3-0.8c1.2,0,2.3,0.3,3.3,0.8c1,0.5,1.8,1.2,2.3,2c0.6,0.9,0.9,1.8,0.9,2.9
	c0,1.1-0.3,2-0.9,2.9c-0.6,0.9-1.3,1.5-2.3,2C155,19.6,153.9,19.8,152.7,19.8z M152.7,17.3c0.6,0,1.2-0.1,1.7-0.4
	c0.5-0.3,0.9-0.7,1.2-1.1c0.3-0.5,0.5-1,0.5-1.6c0-0.6-0.2-1.1-0.5-1.6c-0.3-0.5-0.7-0.9-1.2-1.1c-0.5-0.3-1.1-0.4-1.7-0.4
	c-0.6,0-1.2,0.1-1.7,0.4c-0.5,0.3-0.9,0.7-1.2,1.1c-0.3,0.5-0.4,1-0.4,1.6c0,0.6,0.1,1.1,0.4,1.6c0.3,0.5,0.7,0.9,1.2,1.1
	C151.5,17.2,152,17.3,152.7,17.3z"/>
</svg>
