<svg xmlns="http://www.w3.org/2000/svg" viewBox="0 0 23.7 23.72"><defs><style>.cls-1{fill:#fff;}</style></defs><g id="图层_2" data-name="图层 2"><g id="图层_1-2" data-name="图层 1"><path class="cls-1" d="M21.77,23.72H20.1a3.7,3.7,0,0,1-1.49-1q-3.42-4.12-6.86-8.23L4.13,5.36a1.52,1.52,0,0,0-.34-.22,1.18,1.18,0,0,0-.11.35q0,6.43,0,12.86a1.54,1.54,0,0,0,.1.35,1.19,1.19,0,0,0,.34-.16c.78-.66,1.55-1.34,2.32-2s1.56-1.37,2.37-2a.84.84,0,0,1,.66-.08c.13.05.23.32.25.5s-.12.29-.21.43C8,17.61,6.46,19.86,5,22.13a3.58,3.58,0,0,1-1.9,1.59H1.93c-.27-.14-.54-.26-.8-.41A3,3,0,0,1,0,21.79V2c.14-.28.28-.57.44-.84C1.27-.32,4-.34,5.17,1.08c4.46,5.46,9,10.84,13.53,16.25.31.37.61.75.93,1.11.07.08.19.1.28.16,0-.11.09-.21.12-.31a1.08,1.08,0,0,0,0-.18q0-6.3,0-12.59a3,3,0,0,0-.1-.49,2.38,2.38,0,0,0-.44.25L14.94,9.21a.55.55,0,0,1-.79.06.53.53,0,0,1,0-.78l5-7.42A2.53,2.53,0,0,1,23.7,2.54V21.2a2.45,2.45,0,0,1-1.47,2.3Z"/></g></g></svg>