<svg xmlns="http://www.w3.org/2000/svg" viewBox="0 0 30.16 18.49"><defs><style>.cls-1{fill:#4a8dcc;}</style></defs><g id="图层_2" data-name="图层 2"><g id="图层_1-2" data-name="图层 1"><path id="WalletConnect" class="cls-1" d="M6.18,3.61A12.79,12.79,0,0,1,24,3.61l.59.58a.6.6,0,0,1,0,.87l-2,2a.33.33,0,0,1-.45,0l-.81-.8a8.92,8.92,0,0,0-12.43,0L8,7.1a.33.33,0,0,1-.45,0l-2-2a.6.6,0,0,1,0-.87Zm22,4.1L30,9.48a.62.62,0,0,1,0,.87l-8.13,8a.64.64,0,0,1-.89,0h0l-5.77-5.65a.16.16,0,0,0-.22,0h0L9.2,18.31a.64.64,0,0,1-.89,0h0l-8.13-8a.62.62,0,0,1,0-.87L2,7.71a.64.64,0,0,1,.89,0l5.77,5.65a.16.16,0,0,0,.22,0h0l5.77-5.65a.64.64,0,0,1,.89,0h0l5.76,5.65a.17.17,0,0,0,.23,0l5.77-5.65A.64.64,0,0,1,28.18,7.71Z"/></g></g></svg>